<svg id="Layer_2" data-name="Layer 2" xmlns="http://www.w3.org/2000/svg" viewBox="0 0 48.69 61.2"><defs><style>.cls-1{fill:#9b9bde;stroke:#fff;stroke-miterlimit:10;}.cls-2{fill:#341f97;}.cls-3{fill:#fff;}</style></defs><path class="cls-1" d="M193.1,220.14a23.85,23.85,0,1,0-38,19.3,48.05,48.05,0,0,1,13.07,14.63l1,1.8.91-1.58a47.59,47.59,0,0,1,13.14-14.74A24,24,0,0,0,193.1,220.14Z" transform="translate(-144.91 -195.67)"/><ellipse class="cls-2" cx="24.38" cy="24.56" rx="18" ry="18.09"/><g id="Art"><path class="cls-3" d="M181.58,209.46a2.67,2.67,0,0,1-.72,1.1q-3.29,3.48-6.55,7l-.26.28a2.89,2.89,0,0,0,1.35.2c.37,0,.75-.11,1.12-.17a1.71,1.71,0,0,1,2.08,1.22,8.11,8.11,0,0,1,.39,3.21,11.44,11.44,0,0,1-10.25,10.88,11.42,11.42,0,0,1-12.43-9.43,11.22,11.22,0,0,1,1.66-8.13.5.5,0,0,1,.52-.29.43.43,0,0,1,.41.37.85.85,0,0,1-.12.49,9.74,9.74,0,0,0-1.41,3.47,10.27,10.27,0,0,0,2.9,9.59,10,10,0,0,0,5.81,2.88,10.42,10.42,0,0,0,11.63-7.86,9.72,9.72,0,0,0,.06-4.55l0-.1c-.22-.72-.46-.89-1.2-.74a4.65,4.65,0,0,1-2.69-.06.75.75,0,0,0-1,.26c-.73.84-1.51,1.63-2.27,2.44a.52.52,0,0,0-.14.25,3.65,3.65,0,0,1-2.74,3.07,3.86,3.86,0,0,1-2.4.1,2.76,2.76,0,0,1-.47-.2.46.46,0,0,1-.14-.74,2.56,2.56,0,0,0,.63-1.81c0-.34,0-.68.07-1a2.34,2.34,0,0,1,1.59-1.94,4.16,4.16,0,0,0,1.44-1c.71-.68,1.43-1.35,2.15-2a.28.28,0,0,0,.09-.37,4.65,4.65,0,0,1-.2-2.83,1.7,1.7,0,0,0,0-.22c.12-.73,0-1-.72-1.17a8,8,0,0,0-2.88-.26,10.48,10.48,0,0,0-5,1.64.5.5,0,1,1-.53-.83,11.24,11.24,0,0,1,8.22-1.63,4.2,4.2,0,0,1,.85.27,1.69,1.69,0,0,1,1.07,1.94,15.12,15.12,0,0,0-.17,1.65,4.27,4.27,0,0,0,.15.92l.24-.22c2.36-2.21,4.71-4.41,7.06-6.63a2.68,2.68,0,0,1,1.08-.71h.55a1.6,1.6,0,0,1,1.14,1.19ZM170,220.7a.77.77,0,0,1,.09-.13q5.11-5.46,10.25-10.91c.28-.31.32-.55.13-.76s-.46-.17-.78.12l-10.88,10.22c-.05,0-.12.08-.16.12ZM165.9,224l.3,0a3.56,3.56,0,0,0,2.57-1,2,2,0,0,0,.65-1.25.31.31,0,0,0-.07-.26c-.48-.5-1-1-1.47-1.48a.26.26,0,0,0-.19-.07,1.63,1.63,0,0,0-1.3,1.3c0,.21,0,.41-.06.62A4.52,4.52,0,0,1,165.9,224Z" transform="translate(-144.91 -195.67)"/><path class="cls-3" d="M166.74,228.71a2,2,0,0,1-2,2,2,2,0,1,1,2-2Zm-1,0a1,1,0,0,0-1-1,1,1,0,1,0,0,2A1,1,0,0,0,165.74,228.69Z" transform="translate(-144.91 -195.67)"/><path class="cls-3" d="M166.74,214.71a2,2,0,1,1-2-2A2,2,0,0,1,166.74,214.71Zm-2-1a1,1,0,0,0-1,1,1,1,0,0,0,1,1,1,1,0,0,0,0-2Z" transform="translate(-144.91 -195.67)"/><path class="cls-3" d="M160.67,222.62a2,2,0,0,1,2,2,2,2,0,0,1-4,0A2,2,0,0,1,160.67,222.62Zm1,2a1,1,0,1,0-1,1A1,1,0,0,0,161.66,224.6Z" transform="translate(-144.91 -195.67)"/><path class="cls-3" d="M160.66,220.79a2,2,0,0,1,0-4,2,2,0,1,1,0,4Zm0-1a1,1,0,0,0,1-1,1,1,0,0,0-1-1,1,1,0,0,0-1,1A1,1,0,0,0,160.66,219.8Z" transform="translate(-144.91 -195.67)"/><path class="cls-3" d="M168.56,228.68a2,2,0,1,1,2,2A2,2,0,0,1,168.56,228.68Zm2,1a1,1,0,0,0,1-1,1,1,0,1,0-2,0A1,1,0,0,0,170.54,229.68Z" transform="translate(-144.91 -195.67)"/><path class="cls-3" d="M174.64,222.62a2,2,0,0,1,0,4,2,2,0,0,1-2-2A2,2,0,0,1,174.64,222.62Zm0,1a1,1,0,0,0-1,1,1,1,0,0,0,1,1,1,1,0,0,0,1-1A1,1,0,0,0,174.63,223.61Z" transform="translate(-144.91 -195.67)"/><path class="cls-3" d="M160.33,214.05a.47.47,0,0,1-.48.49.48.48,0,0,1-.5-.49.49.49,0,0,1,.49-.49A.48.48,0,0,1,160.33,214.05Z" transform="translate(-144.91 -195.67)"/></g></svg>