<svg id="Layer_2" data-name="Layer 2" xmlns="http://www.w3.org/2000/svg" viewBox="0 0 48.69 61.2"><defs><style>.cls-1{fill:#9b9bde;stroke:#fff;stroke-miterlimit:10;}.cls-2{fill:#341f97;}.cls-3{fill:#fff;}</style></defs><path class="cls-1" d="M193.1,220.14a23.85,23.85,0,1,0-38,19.3,48.05,48.05,0,0,1,13.07,14.63l1,1.8.91-1.58a47.59,47.59,0,0,1,13.14-14.74A24,24,0,0,0,193.1,220.14Z" transform="translate(-144.91 -195.67)"/><ellipse class="cls-2" cx="24.38" cy="24.56" rx="18" ry="18.09"/><g id="Disccuion"><path class="cls-3" d="M163.74,229.74a24,24,0,0,1,0-3.06,2.75,2.75,0,0,1,2.81-2.41c2,0,4.11-.05,6.16,0a2.78,2.78,0,0,1,2.82,2.75,21,21,0,0,1,0,2.38c0,.14-.25.4-.39.4-3.74,0-7.49,0-11.23,0A.69.69,0,0,1,163.74,229.74Z" transform="translate(-144.91 -195.67)"/><path class="cls-3" d="M162.35,217.46l.9-1.4a4,4,0,0,1-1.77-3.29,3.85,3.85,0,0,1,3.33-3.81,3.9,3.9,0,0,1,4.18,2.59,3.72,3.72,0,0,1-1.86,4.63,43.77,43.77,0,0,1-4.69,1.42Zm1.2-3.93c.26-.4.51-.62.51-.84s-.31-.36-.48-.54c-.19.18-.51.34-.54.54S163.29,213.13,163.55,213.53Zm1.78,0c.29-.38.56-.59.57-.81s-.32-.54-.47-.52a.8.8,0,0,0-.57.48C164.83,212.87,165.09,213.12,165.33,213.52Zm2.64-.77c-.37-.28-.57-.56-.79-.57s-.53.31-.51.46a.79.79,0,0,0,.46.59C167.32,213.27,167.57,213,168,212.75Z" transform="translate(-144.91 -195.67)"/><path class="cls-3" d="M172.94,219.76a3.3,3.3,0,1,1-3.3-3.29A3.29,3.29,0,0,1,172.94,219.76Z" transform="translate(-144.91 -195.67)"/><path class="cls-3" d="M164,224.53c-1.7,1.54-1.08,3.44-1.23,5.24h-5.51c0-1.14,0-2.25,0-3.35a2.1,2.1,0,0,1,2-1.88C160.81,224.48,162.3,224.53,164,224.53Z" transform="translate(-144.91 -195.67)"/><path class="cls-3" d="M182.06,229.78h-5.49c-.22-1.74.45-3.69-1.18-5.19a3.43,3.43,0,0,1,.49-.08h3.73a2.27,2.27,0,0,1,2.45,2.49Z" transform="translate(-144.91 -195.67)"/><path class="cls-3" d="M175.89,216.47l.61,1-.08.19a22.51,22.51,0,0,1-3.78-1.32,2.76,2.76,0,0,1-.58-4.11,2.88,2.88,0,1,1,4.31,3.81Zm-1.65-3.06c-.18.26-.38.42-.36.56a.55.55,0,0,0,.39.35c.13,0,.35-.24.36-.38S174.43,213.65,174.24,213.41Zm-.73.52c-.29-.18-.47-.37-.6-.34a.61.61,0,0,0-.33.43c0,.09.25.31.38.3S173.25,214.13,173.51,213.93Zm2.68,0c-.28-.18-.45-.39-.59-.36a.59.59,0,0,0-.34.41c0,.09.23.32.35.32S175.92,214.14,176.19,214Z" transform="translate(-144.91 -195.67)"/><path class="cls-3" d="M159.3,221a2.6,2.6,0,1,1,5.19,0,2.6,2.6,0,0,1-5.19,0Z" transform="translate(-144.91 -195.67)"/><path class="cls-3" d="M174.81,221a2.57,2.57,0,0,1,2.61-2.59,2.59,2.59,0,1,1-2.61,2.59Z" transform="translate(-144.91 -195.67)"/></g></svg>