<svg id="Layer_2" data-name="Layer 2" xmlns="http://www.w3.org/2000/svg" viewBox="0 0 48.69 61.2"><defs><style>.cls-1{fill:#9b9bde;stroke:#fff;stroke-miterlimit:10;}.cls-2{fill:#341f97;}.cls-3{fill:#fff;}</style></defs><path class="cls-1" d="M193.1,220.14a23.85,23.85,0,1,0-38,19.3,48.05,48.05,0,0,1,13.07,14.63l1,1.8.91-1.58a47.59,47.59,0,0,1,13.14-14.74A24,24,0,0,0,193.1,220.14Z" transform="translate(-144.91 -195.67)"/><ellipse class="cls-2" cx="24.38" cy="24.56" rx="18" ry="18.09"/><g id="Food_" data-name="Food?"><path class="cls-3" d="M181.55,211c-.07.38-.12.76-.2,1.13a6.32,6.32,0,0,1-.91,2.14c-.47.71-.93,1.42-1.44,2.11a3.37,3.37,0,0,1-2.53,1.35l-1.41.1a2.27,2.27,0,0,0-1.66.92q-3,3.8-6.1,7.57l-4.8,6a1.84,1.84,0,0,1-1.25.74,1,1,0,0,0-.14,0h-.2a2.62,2.62,0,0,1-1.17-.42,2,2,0,0,1-.28-3c4-4.12,8-8.26,12.06-12.39a2.58,2.58,0,0,0,.77-2.16,10,10,0,0,1,0-1.64,3.13,3.13,0,0,1,1.08-2.2A30.06,30.06,0,0,1,176,209a6.26,6.26,0,0,1,4.09-1,1.54,1.54,0,0,1,1.4,1.35c0,.2.07.39.1.59Zm-8.57,3.6a3.51,3.51,0,0,1-1.12,3.37c-4,4-7.88,8.11-11.84,12.15a1.29,1.29,0,0,0,.47,2.08,1.26,1.26,0,0,0,1.5-.48q5.41-6.76,10.85-13.5a2.84,2.84,0,0,1,1.78-1.1,14.36,14.36,0,0,1,1.61-.13,2.81,2.81,0,0,0,2.32-1.28l1.12-1.64a6.27,6.27,0,0,0,1-4.55.82.82,0,0,0-.81-.75,5.52,5.52,0,0,0-3.5.92,33.33,33.33,0,0,0-2.68,2.23,2.07,2.07,0,0,0-.66,1.26C173,213.62,173,214.12,173,214.55Z" transform="translate(-144.91 -195.67)"/><path class="cls-3" d="M179.21,233l-.36-.07a1.9,1.9,0,0,1-.95-.59q-3.57-3.93-7.13-7.85a1.57,1.57,0,0,1-.21-.24.36.36,0,0,1,.07-.48.35.35,0,0,1,.47,0,1.26,1.26,0,0,1,.2.2c2.37,2.61,4.76,5.22,7.12,7.84a1.27,1.27,0,1,0,1.8-1.79c-2.68-2.42-5.34-4.86-8-7.29a2.08,2.08,0,0,1-.21-.21.35.35,0,0,1,0-.48.35.35,0,0,1,.48-.06,1,1,0,0,1,.17.14l8.07,7.36a1.87,1.87,0,0,1,.52,2.15,2,2,0,0,1-1.72,1.35l-.19,0Z" transform="translate(-144.91 -195.67)"/><path class="cls-3" d="M163.43,213.69c.38-.34.38-.41.09-.7-1.24-1.24-2.48-2.48-3.7-3.72a1.31,1.31,0,0,1-.34-.59.83.83,0,0,1,.42-.91.9.9,0,0,1,1,.1l1.88,1.58c1,.84,2,1.69,3,2.52a3.43,3.43,0,0,1,1.26,2.67c0,.45,0,.9,0,1.35a2.22,2.22,0,0,0,.75,1.7l.58.53a.4.4,0,0,1,.08.58.38.38,0,0,1-.59,0,10.81,10.81,0,0,1-1.06-1.08,2.62,2.62,0,0,1-.52-1.7c0-.53,0-1.06,0-1.59a2.53,2.53,0,0,0-.93-1.83l-4.78-4a.45.45,0,0,0-.13-.11c-.06,0-.15,0-.17,0s0,.12,0,.17a1.14,1.14,0,0,0,.15.16l3.66,3.66a1,1,0,0,1,0,1.69l-1.54,1.55a1,1,0,0,1-1.58,0l-3.7-3.71a.66.66,0,0,0-.15-.14,1.23,1.23,0,0,0-.2,0,.53.53,0,0,0,0,.18.71.71,0,0,0,.1.14c1.38,1.64,2.74,3.29,4.14,4.91a2.51,2.51,0,0,0,1.95.83c.59,0,1.18,0,1.76,0a2.62,2.62,0,0,1,1.72.86c.22.23.43.46.64.7s.2.43,0,.59-.39.13-.59-.07-.33-.35-.48-.53a2.32,2.32,0,0,0-1.82-.83,15.25,15.25,0,0,1-1.91-.07,3.06,3.06,0,0,1-2-1.12l-4.11-4.9a.9.9,0,0,1,.45-1.52.94.94,0,0,1,.9.32q1.77,1.8,3.56,3.58l.16.16c.3.29.38.29.66-.06l-.18-.19-4.06-4.07a1.5,1.5,0,0,1-.2-.23.37.37,0,0,1,.51-.51,1.37,1.37,0,0,1,.22.2c1.42,1.41,2.83,2.83,4.26,4.26l.26-.31-.17-.18-4-4.05-.17-.18a.36.36,0,0,1,0-.51.35.35,0,0,1,.5,0,1.75,1.75,0,0,1,.2.19l4,4A2.29,2.29,0,0,1,163.43,213.69Z" transform="translate(-144.91 -195.67)"/></g></svg>