<svg id="Layer_2" data-name="Layer 2" xmlns="http://www.w3.org/2000/svg" viewBox="0 0 48.69 61.2"><defs><style>.cls-1{fill:#9b9bde;stroke:#fff;stroke-miterlimit:10;}.cls-2{fill:#341f97;}.cls-3{fill:#fff;}</style></defs><path class="cls-1" d="M193.1,220.14a23.85,23.85,0,1,0-38,19.3,48.05,48.05,0,0,1,13.07,14.63l1,1.8.91-1.58a47.59,47.59,0,0,1,13.14-14.74A24,24,0,0,0,193.1,220.14Z" transform="translate(-144.91 -195.67)"/><ellipse class="cls-2" cx="24.38" cy="24.56" rx="18" ry="18.09"/><g id="market"><path class="cls-3" d="M180.65,225.34v1.33h-1.33v4H159.26v-4h-1.32v-1.34h1.31a.22.22,0,0,1,0-.06v-8.55a.39.39,0,0,0-.11-.22,3.34,3.34,0,0,1-1.22-2.71V208h22.72v6.34a1.6,1.6,0,0,0-.05.21,3.27,3.27,0,0,1-1.11,1.94.44.44,0,0,0-.17.38v8.52Zm-2.67-4V217.2a3.38,3.38,0,0,1-1.84-.15,3.46,3.46,0,0,1-1.5-1.12,3.36,3.36,0,0,1-5.35,0,3.36,3.36,0,0,1-5.35,0,3.47,3.47,0,0,1-1.49,1.12,3.42,3.42,0,0,1-1.85.15v4.14Zm0,5.35H160.61v2.64H178Zm-17.37-4v2.64h1.77V224h1.33v1.3h1.8V224h1.33v1.29h1.77v-2.63Zm9.36,0v2.64h1.78V224h1.33v1.3h1.79V224h1.34v1.29H178v-2.63Zm-10.69-13.4v3.3h4v-3.3Zm9.34,0h-4v3.3h4Zm1.35,0v3.31h4v-3.31Zm5.35,0v3.3h4v-3.3Zm-16,4.66a2,2,0,0,0,2,2,2,2,0,0,0,1.92-2Zm5.35,0a2,2,0,0,0,4,0Zm5.34,0a2,2,0,0,0,2,2,2,2,0,0,0,1.94-2Zm5.35,0a2,2,0,0,0,4,0Z" transform="translate(-144.91 -195.67)"/></g></svg>