<svg id="Layer_2" data-name="Layer 2" xmlns="http://www.w3.org/2000/svg" viewBox="0 0 48.69 61.2"><defs><style>.cls-1{fill:#9b9bde;stroke:#fff;stroke-miterlimit:10;}.cls-2{fill:#341f97;}.cls-3{fill:#fff;}</style></defs><path class="cls-1" d="M193.1,220.14a23.85,23.85,0,1,0-38,19.3,48.05,48.05,0,0,1,13.07,14.63l1,1.8.91-1.58a47.59,47.59,0,0,1,13.14-14.74A24,24,0,0,0,193.1,220.14Z" transform="translate(-144.91 -195.67)"/><ellipse class="cls-2" cx="24.38" cy="24.56" rx="18" ry="18.09"/><g id="Meeting"><path class="cls-3" d="M169.27,214.4a5.36,5.36,0,1,1-5.36,5.35A5.38,5.38,0,0,1,169.27,214.4Zm-4.39,5.34a4.38,4.38,0,1,0,4.42-4.36A4.39,4.39,0,0,0,164.88,219.74Z" transform="translate(-144.91 -195.67)"/><path class="cls-3" d="M167.8,208.4a2,2,0,0,1,.18-2.76,1.92,1.92,0,0,1,2.56,0,2,2,0,0,1,.19,2.75l.27.17a3.34,3.34,0,0,1,1.66,2.77c0,.45-.16.64-.6.64h-5.59c-.45,0-.63-.19-.61-.64a3.37,3.37,0,0,1,1.56-2.71Zm-.9,2.58h4.72a2.38,2.38,0,0,0-2.34-1.93A2.41,2.41,0,0,0,166.9,211Zm2.36-2.91a1,1,0,0,0,0-1.94,1,1,0,1,0,0,1.94Z" transform="translate(-144.91 -195.67)"/><path class="cls-3" d="M160,211.81a2,2,0,0,1,.2-2.78,1.94,1.94,0,0,1,2.53,0,2,2,0,0,1,.22,2.76c.25.18.52.34.76.55a3.31,3.31,0,0,1,1.16,2.45c0,.39-.17.58-.56.58h-5.68c-.39,0-.58-.19-.56-.58a3.33,3.33,0,0,1,1.57-2.77Zm3.83,2.58a2.41,2.41,0,0,0-4.72,0Zm-1.39-3.88a1,1,0,1,0-1,1A1,1,0,0,0,162.45,210.51Z" transform="translate(-144.91 -195.67)"/><path class="cls-3" d="M175.58,211.81a2,2,0,0,1,.19-2.76,1.94,1.94,0,0,1,2.56,0,2,2,0,0,1,.19,2.76l.27.17a3.37,3.37,0,0,1,1.66,2.77c0,.45-.16.63-.61.63h-5.59c-.44,0-.63-.18-.6-.63a3.37,3.37,0,0,1,1.56-2.71C175.32,212,175.45,211.89,175.58,211.81Zm3.83,2.58a2.41,2.41,0,0,0-4.72,0Zm-2.35-2.91a1,1,0,0,0,1-1,1,1,0,1,0-1,1Z" transform="translate(-144.91 -195.67)"/><path class="cls-3" d="M159.54,219.6a3.44,3.44,0,0,1,1.91,2.66c0,.1,0,.2,0,.3,0,.41-.17.6-.58.6H155.3c-.48,0-.66-.18-.63-.67a3.38,3.38,0,0,1,1.62-2.71l.3-.18c-.66-1.18-.57-2.14.25-2.81a2,2,0,0,1,2.54.06A2,2,0,0,1,159.54,219.6Zm.89,2.58a2.39,2.39,0,0,0-2.52-1.93,2.35,2.35,0,0,0-2.18,1.93Zm-2.36-2.91a1,1,0,1,0-1-1A1,1,0,0,0,158.07,219.27Z" transform="translate(-144.91 -195.67)"/><path class="cls-3" d="M179,219.6a2,2,0,0,1,.19-2.77,1.93,1.93,0,0,1,2.55,0,2,2,0,0,1,.19,2.76l.27.16a3.35,3.35,0,0,1,1.66,2.78c0,.44-.15.63-.6.63h-5.59c-.45,0-.63-.19-.61-.63a3.37,3.37,0,0,1,1.56-2.71l.18-.11Zm3.82,2.57a2.38,2.38,0,0,0-2.49-1.92,2.35,2.35,0,0,0-2.21,1.92Zm-3.33-3.87a1,1,0,0,0,2,0,1,1,0,1,0-2,0Z" transform="translate(-144.91 -195.67)"/><path class="cls-3" d="M163,227.32c.39.34.79.65,1.13,1a3.18,3.18,0,0,1,.76,2c0,.45-.16.64-.6.64h-5.62c-.41,0-.6-.19-.58-.6a3.34,3.34,0,0,1,1.55-2.74l.39-.23a2,2,0,0,1-.44-1.73,1.9,1.9,0,0,1,.71-1.1,1.92,1.92,0,0,1,2.46.06A2,2,0,0,1,163,227.32Zm.85,2.65a2.42,2.42,0,0,0-2.59-1.93,2.34,2.34,0,0,0-2.11,1.93Zm-1.39-3.89a1,1,0,1,0-1,1A1,1,0,0,0,162.45,226.08Z" transform="translate(-144.91 -195.67)"/><path class="cls-3" d="M178.52,227.38a3.46,3.46,0,0,1,1.91,2.67c0,.1,0,.2,0,.3,0,.41-.17.6-.58.6h-5.59c-.48,0-.67-.19-.63-.67a3.37,3.37,0,0,1,1.64-2.73l.28-.16c-.66-1.18-.58-2.14.25-2.81a1.93,1.93,0,0,1,2.53.06A2,2,0,0,1,178.52,227.38Zm.89,2.58a2.41,2.41,0,0,0-4.72,0ZM177,227.05a1,1,0,1,0-1-1A1,1,0,0,0,177,227.05Z" transform="translate(-144.91 -195.67)"/><path class="cls-3" d="M170.73,230.79a3.43,3.43,0,0,1,1.91,2.67,1.94,1.94,0,0,1,0,.24c0,.47-.15.65-.62.65h-5.65a.49.49,0,0,1-.53-.55,3.35,3.35,0,0,1,1.57-2.79l.36-.22A2,2,0,0,1,168,228a1.94,1.94,0,0,1,2.54,0A2,2,0,0,1,170.73,230.79Zm.89,2.58a2.4,2.4,0,0,0-2.52-1.93,2.37,2.37,0,0,0-2.18,1.93Zm-2.35-2.91a1,1,0,0,0,1-1,1,1,0,0,0-1-1,1,1,0,1,0,0,1.94Z" transform="translate(-144.91 -195.67)"/></g></svg>