<svg id="Layer_2" data-name="Layer 2" xmlns="http://www.w3.org/2000/svg" viewBox="0 0 48.69 61.2"><defs><style>.cls-1{fill:#9b9bde;stroke:#fff;stroke-miterlimit:10;}.cls-2{fill:#341f97;}.cls-3{fill:#fff;}</style></defs><path class="cls-1" d="M193.1,220.14a23.85,23.85,0,1,0-38,19.3,48.05,48.05,0,0,1,13.07,14.63l1,1.8.91-1.58a47.59,47.59,0,0,1,13.14-14.74A24,24,0,0,0,193.1,220.14Z" transform="translate(-144.91 -195.67)"/><ellipse class="cls-2" cx="24.38" cy="24.56" rx="18" ry="18.09"/><g id="Music"><path class="cls-3" d="M168.19,231.86a3.43,3.43,0,0,1-1.34-.55,2.8,2.8,0,0,1,2.9-4.77l.18.09v-9.31c0-.58.15-.79.7-.94l9.6-2.72c.5-.14.73,0,1,.45v12.46a.42.42,0,0,0,0,.16,2.81,2.81,0,1,1-2.15-3.21,7.75,7.75,0,0,1,.77.26V218l-8.51,2.41V229a2.81,2.81,0,0,1-1.21,2.38,3.25,3.25,0,0,1-1.27.5Z" transform="translate(-144.91 -195.67)"/><path class="cls-3" d="M162.9,210.92v11a2.81,2.81,0,1,1-3.26-2.7,3,3,0,0,1,1.85.32v-.28q0-5.27,0-10.53a1.2,1.2,0,0,1,.09-.5.67.67,0,0,1,1.08-.19,2.1,2.1,0,0,1,.26.33A14.67,14.67,0,0,0,167,212.8a3.47,3.47,0,0,1,1.52,3.12,3.53,3.53,0,0,1-3.47,3.3.72.72,0,0,1-.73-.67.7.7,0,0,1,.68-.74,2.12,2.12,0,0,0,1.64-.78,2.09,2.09,0,0,0-.32-3c-.84-.7-1.67-1.41-2.48-2.13A13,13,0,0,1,162.9,210.92Z" transform="translate(-144.91 -195.67)"/></g></svg>