<svg id="Layer_2" data-name="Layer 2" xmlns="http://www.w3.org/2000/svg" viewBox="0 0 48.69 61.2"><defs><style>.cls-1{fill:#9b9bde;stroke:#fff;stroke-miterlimit:10;}.cls-2{fill:#341f97;}.cls-3{fill:#fff;}</style></defs><path class="cls-1" d="M193.1,220.14a23.85,23.85,0,1,0-38,19.3,48.05,48.05,0,0,1,13.07,14.63l1,1.8.91-1.58a47.59,47.59,0,0,1,13.14-14.74A24,24,0,0,0,193.1,220.14Z" transform="translate(-144.91 -195.67)"/><ellipse class="cls-2" cx="24.38" cy="24.56" rx="18" ry="18.09"/><g id="Other"><path class="cls-3" d="M176.25,206l-5.14,8.93h9.69l-16.64,19.24-.06,0,3.63-13.44h-8.25c0-.11.05-.2.08-.28l5-14.17c0-.16.1-.26.31-.26h11.42Zm-8.68,21.6.07,0,9.51-11,0-.07h-8.85l5.13-8.9-.14,0H166c-.19,0-.23.09-.27.23l-3.83,10.92-.07.27h8.08Z" transform="translate(-144.91 -195.67)"/></g></svg>