<svg id="Layer_2" data-name="Layer 2" xmlns="http://www.w3.org/2000/svg" viewBox="0 0 48.69 61.2"><defs><style>.cls-1{fill:#9b9bde;stroke:#fff;stroke-miterlimit:10;}.cls-2{fill:#341f97;}.cls-3{fill:#fff;}</style></defs><path class="cls-1" d="M193.1,220.14a23.85,23.85,0,1,0-38,19.3,48.05,48.05,0,0,1,13.07,14.63l1,1.8.91-1.58a47.59,47.59,0,0,1,13.14-14.74A24,24,0,0,0,193.1,220.14Z" transform="translate(-144.91 -195.67)"/><ellipse class="cls-2" cx="24.38" cy="24.56" rx="18" ry="18.09"/><g id="Party"><path class="cls-3" d="M158.2,230.41c.62-1.33,1.23-2.67,1.85-4q2.37-5,4.73-9.92a2.15,2.15,0,0,1,.14-.26.45.45,0,0,1,.68-.11,1.37,1.37,0,0,1,.18.16l8.36,8.41c.38.38.33.71-.16.94l-13.35,6.43a5.59,5.59,0,0,1-.57.22h-.52a5.11,5.11,0,0,1-.67-.31,1.67,1.67,0,0,1-.67-1Zm10-3-.77-.3a.74.74,0,0,1-.25-.17.45.45,0,0,1,0-.57.48.48,0,0,1,.58-.16c.51.17,1,.36,1.53.51a.61.61,0,0,0,.4,0l3.28-1.58.2-.11-1.83-1.82a.42.42,0,0,0-.26-.06c-.55,0-1.11,0-1.66-.09a13,13,0,0,1-4.49-1.52l-1.11-.62c-.32.68-.63,1.35-1,2-.08.17-.08.27.09.39.39.27.77.56,1.14.86a.47.47,0,0,1-.05.82.49.49,0,0,1-.53-.07l-1.18-.87c-.43.9-.86,1.78-1.27,2.68a.26.26,0,0,0,.07.21,23.54,23.54,0,0,0,3.1,2.25.44.44,0,0,0,.32,0c.72-.33,1.43-.68,2.14-1Zm2.06-5.23-4.78-4.81L164.17,220A13.4,13.4,0,0,0,170.21,222.15Zm-7,7.6-2.75-2.05c-.42.89-.85,1.78-1.27,2.68a.57.57,0,0,0,0,.14.64.64,0,0,0,.78.78,3.2,3.2,0,0,0,.39-.16Z" transform="translate(-144.91 -195.67)"/><path class="cls-3" d="M168.77,207.79l.19.08a1.55,1.55,0,0,1,.64,2.54l-.32.33c.22.25.44.5.67.74a2.89,2.89,0,0,1,.83,1.52,3.08,3.08,0,0,1-.69,2.66,6.57,6.57,0,0,1-.59.59,1.53,1.53,0,0,1-2.14-.1,1.54,1.54,0,0,1,0-2.17c.1-.11.22-.2.3-.28-.24-.26-.45-.5-.67-.72a3.08,3.08,0,0,1-.13-4.26,2.79,2.79,0,0,1,1.29-.93Zm1,6.55,0,0a.32.32,0,0,0,0-.09,2.08,2.08,0,0,0-.58-2.12c-.68-.67-1.34-1.35-2-2a.84.84,0,0,0-.06.14,2.23,2.23,0,0,0,.75,2.29C168.53,213.09,169.13,213.72,169.76,214.34Zm-1.36,0c-.14.15-.27.28-.38.41a.59.59,0,0,0,.86.81.56.56,0,0,0-.07-.79Zm.15-4.21a4.07,4.07,0,0,0,.41-.43.58.58,0,0,0-.88-.75.56.56,0,0,0,.07.77Z" transform="translate(-144.91 -195.67)"/><path class="cls-3" d="M182.57,222.19a3.15,3.15,0,0,1-2.74,2.11,3.38,3.38,0,0,1-3.09-1.63l-.31.34a1.54,1.54,0,0,1-2.17.08,1.56,1.56,0,0,1-.11-2.18,3.49,3.49,0,0,1,2-1.27,2.94,2.94,0,0,1,2.72.78l.81.76.18-.24a1.5,1.5,0,0,1,1.53-.5,1.48,1.48,0,0,1,1.15,1.14.35.35,0,0,0,0,.08Zm-2.25,1.05-.54-.51-1.5-1.53a2,2,0,0,0-1-.61,2,2,0,0,0-1.13,0c.15.19.28.39.45.57.54.56,1.07,1.11,1.63,1.65A2,2,0,0,0,180.32,223.24Zm-4.25-1.19c-.2-.2-.34-.37-.51-.52a.51.51,0,0,0-.84.44.58.58,0,0,0,.95.44C175.81,222.3,175.93,222.17,176.07,222.05Zm4.17-.22c.2.21.35.37.52.52a.53.53,0,0,0,.64,0,.57.57,0,0,0,.19-.6.59.59,0,0,0-1-.3Z" transform="translate(-144.91 -195.67)"/><path class="cls-3" d="M177.65,214.87a1.34,1.34,0,0,1-1-.38c-.25-.24-.5-.49-.74-.74a1.43,1.43,0,0,1,0-2c.23-.25.47-.49.72-.73a1.4,1.4,0,0,1,1.94,0,9.08,9.08,0,0,1,.76.76,1.42,1.42,0,0,1,0,2c-.23.25-.47.48-.71.71A1.28,1.28,0,0,1,177.65,214.87Zm0-.91a1.79,1.79,0,0,0,.34-.19c.23-.21.44-.43.66-.66a.46.46,0,0,0,0-.69c-.2-.22-.42-.43-.63-.64a.48.48,0,0,0-.74,0c-.21.2-.41.4-.6.61a.48.48,0,0,0,0,.74c.2.21.4.42.62.62A2.43,2.43,0,0,0,177.62,214Z" transform="translate(-144.91 -195.67)"/><path class="cls-3" d="M181.24,209.61a.48.48,0,1,1-1,0,.48.48,0,0,1,.5-.46A.46.46,0,0,1,181.24,209.61Z" transform="translate(-144.91 -195.67)"/><path class="cls-3" d="M173.25,213.59a.46.46,0,0,1-.46.47.48.48,0,0,1-.49-.48.5.5,0,0,1,.48-.47A.47.47,0,0,1,173.25,213.59Z" transform="translate(-144.91 -195.67)"/><path class="cls-3" d="M176.33,217.62a.45.45,0,0,1,.47-.46.47.47,0,0,1,.47.47.49.49,0,0,1-.49.48A.47.47,0,0,1,176.33,217.62Z" transform="translate(-144.91 -195.67)"/><path class="cls-3" d="M173.8,209.25a.46.46,0,0,1,.47-.47.47.47,0,0,1,.47.47.48.48,0,0,1-.49.48A.47.47,0,0,1,173.8,209.25Z" transform="translate(-144.91 -195.67)"/><path class="cls-3" d="M181.58,216.14a.47.47,0,1,1-.46-.48A.46.46,0,0,1,181.58,216.14Z" transform="translate(-144.91 -195.67)"/><path class="cls-3" d="M172.41,218.46A.45.45,0,0,1,172,218a.46.46,0,0,1,.46-.48.47.47,0,0,1,.48.48A.46.46,0,0,1,172.41,218.46Z" transform="translate(-144.91 -195.67)"/><path class="cls-3" d="M166.05,225.66a.5.5,0,0,1-.48.49.49.49,0,0,1-.47-.47.47.47,0,0,1,.45-.48A.48.48,0,0,1,166.05,225.66Z" transform="translate(-144.91 -195.67)"/></g></svg>