<svg id="Layer_2" data-name="Layer 2" xmlns="http://www.w3.org/2000/svg" viewBox="0 0 48.69 61.2"><defs><style>.cls-1{fill:#9b9bde;stroke:#fff;stroke-miterlimit:10;}.cls-2{fill:#341f97;}.cls-3{fill:#fff;}</style></defs><path class="cls-1" d="M193.1,220.14a23.85,23.85,0,1,0-38,19.3,48.05,48.05,0,0,1,13.07,14.63l1,1.8.91-1.58a47.59,47.59,0,0,1,13.14-14.74A24,24,0,0,0,193.1,220.14Z" transform="translate(-144.91 -195.67)"/><ellipse class="cls-2" cx="24.38" cy="24.56" rx="18" ry="18.09"/><g id="Politics"><path class="cls-3" d="M179.69,228.15c1.47.18,2.12.84,2,1.87a1.62,1.62,0,0,1-1.81,1.4c-2.9,0-5.8,0-8.71,0-4,0-8,0-12.08,0-1.38,0-2.19-1.08-1.7-2.22.28-.66.73-.91,1.91-1V225c0-1,0-2.05,0-3.08a1.6,1.6,0,1,1,3.2.05c0,1.79,0,3.59,0,5.39v.78h2.6v-4.25c0-.64,0-1.28,0-1.92a1.56,1.56,0,1,1,3.11,0c0,1.85,0,3.7,0,5.54,0,.2,0,.4,0,.64h2.57V225.1c0-.95,0-1.9,0-2.85,0-1.25.56-1.94,1.57-1.93s1.55.67,1.56,2v5.89h2.58v-2.84c0-1.1,0-2.21,0-3.31a1.56,1.56,0,0,1,1.52-1.69,1.53,1.53,0,0,1,1.63,1.65c0,1.77,0,3.54,0,5.31Zm-10.22,2.21h1.15c3.08,0,6.16,0,9.23,0a1,1,0,0,0,.77-.49c.08-.5-.36-.6-.78-.58H159.38c-.2,0-.44-.06-.6,0s-.43.34-.43.52.25.41.44.51.4,0,.6,0Zm-8-2.23c0-2.1,0-4.15,0-6.19,0-.19-.32-.38-.49-.56-.2.19-.56.38-.56.57,0,2.05,0,4.09,0,6.18Zm11.49,0c0-2.11,0-4.15,0-6.2,0-.19-.32-.38-.5-.56-.17.2-.48.39-.51.61a17.54,17.54,0,0,0,0,1.92v4.23Zm5.7,0V226.5c0-1.49,0-3,0-4.47,0-.22-.31-.43-.48-.65-.18.17-.52.34-.52.51,0,2.07,0,4.14,0,6.24Zm-11.44,0c0-2.1,0-4.17,0-6.23,0-.18-.34-.35-.53-.52-.16.22-.45.43-.45.66,0,1.58,0,3.17,0,4.76v1.33Z" transform="translate(-144.91 -195.67)"/><path class="cls-3" d="M169,206.93c.87,0,1.66,0,2.44,0a1,1,0,0,1,.75.45c.25.75.82.63,1.37.62h1.27v4c-.82,0-1.63,0-2.43,0a.94.94,0,0,1-.67-.45c-.34-.87-1-.57-1.58-.53-.19,1.32-.19,1.32,1,1.74q4.53,1.6,9,3.24c1.14.41,1.61,1.1,1.45,2.12s-.85,1.42-2.06,1.42H159.37a1.87,1.87,0,0,1-2.11-1.67,1.78,1.78,0,0,1,1.37-1.88c3.16-1.12,6.32-2.26,9.51-3.32a1.05,1.05,0,0,0,.85-1.25C168.94,210,169,208.47,169,206.93Zm.52,11.6h10.08c.45,0,.91,0,1-.58s-.3-.74-.75-.9c-3.28-1.17-6.55-2.35-9.83-3.51a1.33,1.33,0,0,0-.81,0c-3.43,1.19-6.87,2.38-10.28,3.62a1,1,0,0,0-.5.79c0,.24.43.46.71.61s.41,0,.61,0Zm.6-10.5v1.87c1.43.15,1.65-.19,1.21-1.87Zm2.4,1.09c0,.55,0,1,0,1.46s.39.49.69.44.58-.24.61-.41a8.21,8.21,0,0,0,0-1.49Z" transform="translate(-144.91 -195.67)"/></g></svg>