<svg id="Layer_2" data-name="Layer 2" xmlns="http://www.w3.org/2000/svg" viewBox="0 0 48.69 61.2"><defs><style>.cls-1{fill:#9b9bde;stroke:#fff;stroke-miterlimit:10;}.cls-2{fill:#341f97;}.cls-3{fill:#fff;}</style></defs><path class="cls-1" d="M193.1,220.14a23.85,23.85,0,1,0-38,19.3,48.05,48.05,0,0,1,13.07,14.63l1,1.8.91-1.58a47.59,47.59,0,0,1,13.14-14.74A24,24,0,0,0,193.1,220.14Z" transform="translate(-144.91 -195.67)"/><ellipse class="cls-2" cx="24.38" cy="24.56" rx="18" ry="18.09"/><g id="Protest"><path class="cls-3" d="M156.49,208.94c.24-.35.47-.36.72,0l4,5.11c.21.27.17.56-.1.65a.41.41,0,0,1-.48-.19l-2.81-3.56-1.38-1.73Z" transform="translate(-144.91 -195.67)"/><path class="cls-3" d="M181.64,209.23l-4,5.1c0,.06-.09.12-.14.17a.38.38,0,0,1-.56.1.37.37,0,0,1,0-.55c.27-.36.55-.71.83-1.07l3.13-4c.27-.34.49-.34.74,0Z" transform="translate(-144.91 -195.67)"/><path class="cls-3" d="M156.49,218.52c.21-.3.33-.33.66-.16l1.51.8c.28.14.36.34.25.55s-.31.25-.59.1l-1.49-.78a2.88,2.88,0,0,1-.34-.27Z" transform="translate(-144.91 -195.67)"/><path class="cls-3" d="M181.64,218.76a2.33,2.33,0,0,1-.36.28c-.46.27-.92.52-1.39.78-.25.14-.45.1-.57-.1s0-.4.21-.54l1.46-.81c.31-.18.44-.15.65.15Z" transform="translate(-144.91 -195.67)"/><path class="cls-3" d="M164,216.43c0-.55,0-1.08,0-1.61a1.76,1.76,0,0,1,3.06-1.13l.25.33c1.08-.77,1.85-.65,2.79.4a1.82,1.82,0,0,1,2.82.47,1.76,1.76,0,0,1,1.52-.44,1.74,1.74,0,0,1,1.44,1.69c0,.93,0,1.86,0,2.79a.84.84,0,0,1-.06.39,3.13,3.13,0,0,0-.18,1.42c0,.2,0,.4,0,.6a.37.37,0,0,1-.38.37.36.36,0,0,1-.35-.39c0-.27,0-.54,0-.84a1.82,1.82,0,0,1-2.33-.72,1.81,1.81,0,0,1-2.42.08,1.52,1.52,0,0,1-.53,1.76l.57.7a3,3,0,0,1,.75,2v2.15a.36.36,0,0,1-.35.38.37.37,0,0,1-.38-.36,1.41,1.41,0,0,1,0-.2c0-.59,0-1.19,0-1.78a2.46,2.46,0,0,0-.63-1.74L169,222c-.45.13-.86.28-1.29.36a3.34,3.34,0,0,1-2.1-.33l-1.27-.64c-.27-.13-.35-.32-.25-.53s.31-.26.57-.13l1.23.61a2.85,2.85,0,0,0,2.69,0c.19-.1.38-.2.56-.31a.71.71,0,0,0,0-1.25c-1.5-.81-3-1.63-4.5-2.42a1.72,1.72,0,0,0-2.16.52c-.11.15-.23.28-.44.24a.37.37,0,0,1-.21-.6,2.5,2.5,0,0,1,1.86-1.07Zm8.36.69v-1.36a1,1,0,0,0-1-1.07,1,1,0,0,0-1.05,1c0,.93,0,1.87,0,2.81a1,1,0,0,0,2.05-.05Zm.74.39c0,.45,0,.89,0,1.34a1,1,0,1,0,2,0q0-1.32,0-2.64a1,1,0,1,0-2,0C173,216.66,173.05,217.09,173.05,217.51Zm-3.65,1.58a4.65,4.65,0,0,0,.11-.65c0-1,0-2.06,0-3.08a1,1,0,0,0-1-1.09,1,1,0,0,0-1,1c0,.86,0,1.71,0,2.57a.32.32,0,0,0,.13.22Zm-2.67-1.45v-1c0-.64,0-1.27,0-1.9a1,1,0,0,0-1.05-.89,1,1,0,0,0-1,1c0,.54,0,1.08,0,1.62a.21.21,0,0,0,.09.17Z" transform="translate(-144.91 -195.67)"/><path class="cls-3" d="M173.74,231.25c0-.61,0-1.23,0-1.85a1.56,1.56,0,0,1,.18-.67,4.67,4.67,0,0,0,.93-3.54c0-.73,0-1.45,0-2.17,0-.31.12-.46.36-.46s.37.16.37.45c0,1.11,0,2.22,0,3.33a3.54,3.54,0,0,1-.6,2,2.9,2.9,0,0,0-.52,1.92c0,1,0,2,0,3,0,.27-.13.42-.34.44s-.39-.15-.4-.45Z" transform="translate(-144.91 -195.67)"/><path class="cls-3" d="M160.07,222.25a4.61,4.61,0,0,1,.38-2c.17-.39.35-.76.54-1.14s.32-.35.52-.24.25.3.13.57A12.83,12.83,0,0,0,161,221a3.77,3.77,0,0,0,.84,3.72l1.41,1.61c.21.23.22.45,0,.6s-.38.12-.57-.11c-.53-.6-1.07-1.2-1.58-1.82A4.32,4.32,0,0,1,160.07,222.25Z" transform="translate(-144.91 -195.67)"/><path class="cls-3" d="M165.73,231.32c0,.63,0,1.27,0,1.9,0,.3-.12.46-.35.46s-.38-.16-.38-.47c0-1.16,0-2.32,0-3.48a.7.7,0,0,0-.19-.53c-.32-.34-.62-.7-.93-1s-.21-.43,0-.59.38-.13.59.1c.39.43.78.87,1.15,1.32a.74.74,0,0,1,.15.42C165.74,230,165.73,230.68,165.73,231.32Z" transform="translate(-144.91 -195.67)"/><path class="cls-3" d="M165.15,211.85c-.09.1-.16.24-.26.29a.57.57,0,0,1-.36,0c-.07,0-.12-.11-.16-.18l-1.71-2.67-.07-.11a.39.39,0,0,1,.12-.5.36.36,0,0,1,.5.11,2.9,2.9,0,0,1,.19.29L165,211.5C165,211.6,165.08,211.71,165.15,211.85Z" transform="translate(-144.91 -195.67)"/><path class="cls-3" d="M173.47,212.19a.38.38,0,0,1-.37-.59c.2-.33.41-.65.62-1,.38-.6.76-1.2,1.15-1.8.15-.23.33-.29.52-.19a.37.37,0,0,1,.11.57c-.21.34-.44.69-.66,1-.36.57-.72,1.14-1.09,1.7A1.3,1.3,0,0,1,173.47,212.19Z" transform="translate(-144.91 -195.67)"/><path class="cls-3" d="M157.79,232.59c-.12-.1-.26-.16-.3-.27a.5.5,0,0,1,0-.38,3.55,3.55,0,0,1,.35-.44l1.66-1.94a.37.37,0,0,1,.49-.14c.24.13.26.38.06.63l-1.43,1.68c-.18.21-.34.42-.53.62A2.59,2.59,0,0,1,157.79,232.59Z" transform="translate(-144.91 -195.67)"/><path class="cls-3" d="M180.44,232.58a1.93,1.93,0,0,1-.32-.22l-2-2.34a.37.37,0,0,1,0-.55.36.36,0,0,1,.54.06c.68.79,1.36,1.58,2,2.38a.55.55,0,0,1,.06.4C180.71,232.42,180.56,232.49,180.44,232.58Z" transform="translate(-144.91 -195.67)"/><path class="cls-3" d="M157,225.86c-.09-.1-.23-.18-.29-.31a.33.33,0,0,1,.16-.42l.78-.47.75-.46a.38.38,0,0,1,.56.1.37.37,0,0,1-.17.52c-.5.31-1,.62-1.51.92A2.26,2.26,0,0,1,157,225.86Z" transform="translate(-144.91 -195.67)"/><path class="cls-3" d="M181.59,225.37c0,.36-.29.54-.56.39s-.65-.39-1-.58l-.58-.36a.37.37,0,0,1-.15-.53.36.36,0,0,1,.51-.11c.52.31,1,.62,1.55.95A.82.82,0,0,1,181.59,225.37Z" transform="translate(-144.91 -195.67)"/><path class="cls-3" d="M167.35,209.19c.06.06.2.15.25.27.15.4.28.81.4,1.22a.36.36,0,0,1-.68.25c-.15-.42-.29-.84-.41-1.26C166.83,209.41,167,209.19,167.35,209.19Z" transform="translate(-144.91 -195.67)"/><path class="cls-3" d="M171.24,209.58s0,.09,0,.15c-.12.38-.25.76-.38,1.14a.37.37,0,1,1-.69-.23c.12-.4.26-.79.39-1.19a.36.36,0,0,1,.71.13Z" transform="translate(-144.91 -195.67)"/><path class="cls-3" d="M161,228.88a.37.37,0,0,1-.34-.57,7.57,7.57,0,0,1,.63-.75.32.32,0,0,1,.48,0,.33.33,0,0,1,.07.48q-.3.39-.63.75A.86.86,0,0,1,161,228.88Z" transform="translate(-144.91 -195.67)"/><path class="cls-3" d="M177.71,228.57c-.07.08-.14.22-.25.26a.41.41,0,0,1-.37-.06,5.92,5.92,0,0,1-.65-.76.32.32,0,0,1,.05-.46.31.31,0,0,1,.45,0c.25.26.48.55.71.83C177.69,228.39,177.68,228.46,177.71,228.57Z" transform="translate(-144.91 -195.67)"/></g></svg>