<svg id="Layer_2" data-name="Layer 2" xmlns="http://www.w3.org/2000/svg" viewBox="0 0 48.69 61.2"><defs><style>.cls-1{fill:#9b9bde;stroke:#fff;stroke-miterlimit:10;}.cls-2{fill:#341f97;}.cls-3{fill:#fff;}</style></defs><path class="cls-1" d="M193.1,220.14a23.85,23.85,0,1,0-38,19.3,48.05,48.05,0,0,1,13.07,14.63l1,1.8.91-1.58a47.59,47.59,0,0,1,13.14-14.74A24,24,0,0,0,193.1,220.14Z" transform="translate(-144.91 -195.67)"/><ellipse class="cls-2" cx="24.38" cy="24.56" rx="18" ry="18.09"/><g id="Sports"><path class="cls-3" d="M156.49,228.16v-2c0-.09,0-.17,0-.25.08-.69.11-1.38.23-2.05A20,20,0,0,1,164,211.44a19.54,19.54,0,0,1,10.25-4.35l1.37-.15h2l.23.05c.94.12,1.88.21,2.81.37a2.07,2.07,0,0,1,1.72,1.7c.13.55.2,1.13.28,1.69s.1,1,.15,1.46v2c0,.1,0,.2,0,.3-.14,1-.2,1.94-.41,2.88a19.85,19.85,0,0,1-6.62,11.16,19.61,19.61,0,0,1-10.66,4.72c-.45.06-.91.1-1.37.14h-2l-.18,0c-1-.12-1.91-.22-2.86-.37a2.09,2.09,0,0,1-1.77-1.67,15.33,15.33,0,0,1-.27-1.65C156.58,229.15,156.54,228.65,156.49,228.16Zm4.32-6,.25.22,8.56,8.61a.38.38,0,0,0,.52.1,19.42,19.42,0,0,0,10.38-10.45.35.35,0,0,0-.09-.46q-1.76-1.74-3.49-3.5a1.54,1.54,0,0,1-.17-.19.38.38,0,0,1,.53-.53,1.62,1.62,0,0,1,.19.18l3.21,3.23a1.17,1.17,0,0,1,.14.25,14.69,14.69,0,0,0,.91-3.4.5.5,0,0,0-.15-.32c-1.9-1.92-3.81-3.81-5.69-5.75a.88.88,0,0,0-1.19-.26c-.77.38-1.58.69-2.4,1l.23.24,3.38,3.4a1.54,1.54,0,0,1,.17.19.36.36,0,0,1,0,.49.35.35,0,0,1-.49,0,1.24,1.24,0,0,1-.21-.19c-1.18-1.19-2.37-2.38-3.55-3.58a1.43,1.43,0,0,1-.16-.24l-2,1.22a2.83,2.83,0,0,1,.33.27.38.38,0,1,1-.54.54,4.62,4.62,0,0,1-.34-.41l-.77.57c.13.11.25.19.36.29a.41.41,0,0,1,0,.6.39.39,0,0,1-.57,0c-.13-.13-.25-.27-.38-.41l-.66.55.16.18.18.19a.38.38,0,1,1-.54.54,5.22,5.22,0,0,1-.36-.42l-.68.63.2.16.17.16a.4.4,0,0,1,0,.6.37.37,0,0,1-.57,0c-.11-.11-.2-.24-.27-.32l-.69.62c.15.13.29.24.42.37a.38.38,0,0,1,0,.55.36.36,0,0,1-.56,0,3,3,0,0,1-.32-.43l-.63.74c.15.14.31.26.45.4a.4.4,0,0,1,0,.59.39.39,0,0,1-.57-.05,3.85,3.85,0,0,1-.33-.42l-.57.77a2.13,2.13,0,0,1,.22.18l.2.2a.4.4,0,0,1,0,.59.38.38,0,0,1-.58-.06,2.66,2.66,0,0,1-.29-.37Zm-.36.78a.87.87,0,0,0-.09.17c-.37.86-.72,1.73-1.09,2.59a.35.35,0,0,0,.11.46l2,2c.22.21.24.44.08.61s-.39.16-.6,0L159.12,227l-.2-.19a21.34,21.34,0,0,0-.89,4.55c0,.48,0,.59.49.77l.27.07a19,19,0,0,0,4.38.39c.46,0,.91-.05,1.42-.08l-.22-.23-1.94-2c-.09-.1-.18-.18-.26-.28a.36.36,0,0,1,0-.5.35.35,0,0,1,.51,0,1.8,1.8,0,0,1,.2.19c.71.71,1.45,1.4,2.12,2.15a1.12,1.12,0,0,0,1.3.41c.89-.27,1.8-.47,2.71-.69Zm-.2-1.36,1.43-2.31c-.15-.14-.31-.27-.45-.42a.38.38,0,1,1,.54-.54,4.75,4.75,0,0,1,.34.39l.57-.75-.22-.16-.18-.18a.39.39,0,0,1,0-.57.38.38,0,0,1,.59,0,3.57,3.57,0,0,1,.28.35l.59-.71-.39-.36a.41.41,0,0,1,0-.6.39.39,0,0,1,.57,0,2.66,2.66,0,0,1,.29.35l.65-.57s0-.07,0-.08-.23-.23-.34-.35a.38.38,0,0,1,0-.59c.16-.16.37-.15.57,0s.24.27.37.41l.67-.63a5.27,5.27,0,0,1-.42-.37.38.38,0,0,1,0-.57.39.39,0,0,1,.55,0c.14.14.26.3.4.45l.72-.6a4.53,4.53,0,0,1-.38-.32.38.38,0,0,1,0-.57.37.37,0,0,1,.56,0c.14.14.26.3.39.45l.76-.56-.4-.34a.4.4,0,0,1,0-.6.38.38,0,0,1,.58,0c.15.16.29.34.41.49l1.94-1.19s0,0,0-.05c-.48-.48-.95-.95-1.41-1.43a.3.3,0,0,0-.4-.07,19.34,19.34,0,0,0-8.51,6.93,18.35,18.35,0,0,0-2,3.62.33.33,0,0,0,0,.28C159.24,220.55,159.74,221.05,160.25,221.57ZM181.89,215a.25.25,0,0,0,0-.07,18.41,18.41,0,0,0-.18-5,2.58,2.58,0,0,0-.38-1.27.38.38,0,0,0-.39-.18,20.49,20.49,0,0,0-3.56.58l-1.14.3Zm-11.64-6.26,1.53,1.55,3-1.31-1-1a.31.31,0,0,0-.23-.06c-.49.09-1,.17-1.46.29S170.86,208.6,170.25,208.77Zm-11.71,16.55.06,0c.41-1,.83-1.91,1.23-2.86a.25.25,0,0,0-.06-.23c-.3-.32-.61-.63-.92-.94l-.51-.49a18.77,18.77,0,0,0-.84,3.38.28.28,0,0,0,.06.18C157.88,224.65,158.21,225,158.54,225.32Zm16.11-17.5c.3.29.55.53.79.78a.32.32,0,0,0,.38.1c.65-.19,1.31-.36,2-.53.42-.1.85-.17,1.28-.26A17.14,17.14,0,0,0,174.65,207.82Zm-17.23,21.83,0,0,.81-3.37s0-.11,0-.14l-.89-.9A18.71,18.71,0,0,0,157.42,229.65Z" transform="translate(-144.91 -195.67)"/></g></svg>